<?xml version="1.0" encoding="UTF-8" standalone="no"?>
<!-- Created with Inkscape (http://www.inkscape.org/) -->

<svg
   xmlns:dc="http://purl.org/dc/elements/1.1/"
   xmlns:cc="http://creativecommons.org/ns#"
   xmlns:rdf="http://www.w3.org/1999/02/22-rdf-syntax-ns#"
   xmlns:svg="http://www.w3.org/2000/svg"
   xmlns="http://www.w3.org/2000/svg"
   xmlns:sodipodi="http://sodipodi.sourceforge.net/DTD/sodipodi-0.dtd"
   xmlns:inkscape="http://www.inkscape.org/namespaces/inkscape"
   width="198.85739mm"
   height="45.732994mm"
   viewBox="0 0 198.85739 45.732994"
   version="1.1"
   id="svg5161"
   inkscape:version="0.92.4 5da689c313, 2019-01-14"
   sodipodi:docname="logo.svg">
  <defs
     id="defs5155" />
  <sodipodi:namedview
     id="base"
     pagecolor="#ffffff"
     bordercolor="#666666"
     borderopacity="1.0"
     inkscape:pageopacity="0.0"
     inkscape:pageshadow="2"
     inkscape:zoom="1.2058594"
     inkscape:cx="423.76239"
     inkscape:cy="77.535639"
     inkscape:document-units="mm"
     inkscape:current-layer="text4520"
     showgrid="false" />
  <metadata
     id="metadata5158">
    <rdf:RDF>
      <cc:Work
         rdf:about="">
        <dc:format>image/svg+xml</dc:format>
        <dc:type
           rdf:resource="http://purl.org/dc/dcmitype/StillImage" />
        <dc:title></dc:title>
      </cc:Work>
    </rdf:RDF>
  </metadata>
  <g
     inkscape:label="Calque 1"
     inkscape:groupmode="layer"
     id="layer1"
     transform="translate(51.376862,-123.61498)">
    <g
       aria-label="Pitit Bac"
       style="font-style:normal;font-variant:normal;font-weight:normal;font-stretch:normal;font-size:53.8035202px;line-height:34.78675461px;font-family:'EB Garamond';-inkscape-font-specification:'EB Garamond';font-variant-ligatures:normal;font-variant-caps:normal;font-variant-numeric:normal;font-feature-settings:normal;text-align:center;letter-spacing:0px;word-spacing:0px;writing-mode:lr-tb;text-anchor:middle;fill:#000000;fill-opacity:1;stroke:none;stroke-width:1.39147019"
       id="text4520">
      <path
         d="m 1.8886226,129.31815 q 5.7031731,3.38962 5.7031731,8.17814 0,3.76624 -4.1966746,8.07053 -2.42115836,2.52876 -5.7569766,4.35808 -3.2820147,1.82932 -6.510226,2.63637 -5.5955665,1.34509 -10.1150615,1.34509 -0.968464,0 -1.936927,-0.0538 -3.927657,5.75697 -8.070528,9.79224 -6.079798,5.70317 -13.397077,5.70317 -6.994457,0 -8.608563,-3.82005 -0.376624,-0.91466 -0.376624,-2.09834 0,-1.23748 1.237481,-2.63637 1.936926,-2.20594 5.434155,-2.20594 2.259748,0 4.73471,0.80705 0.91466,0.32282 0.645642,0.69945 -0.215214,0.21521 -1.398891,-0.21522 -1.183678,-0.43043 -2.959194,-0.43043 -1.721713,0 -3.066801,1.34509 -1.291284,1.29129 -1.291284,2.79778 0,0.59184 0.215214,1.18368 0.860856,2.90539 4.89612,2.90539 6.025995,0 11.836775,-5.59556 4.142871,-4.03527 9.308009,-14.52695 1.99073,-3.92766 4.949924,-8.71617 2.959193,-4.84232 6.025994,-8.28575 0.376624,-0.37662 0.9684632,-0.96846 1.1298739,-1.29128 1.8831232,-2.04453 -3.8738534,-0.53804 -8.2857424,-0.53804 -4.411888,0 -8.339545,0.75325 -3.927657,0.69945 -6.833047,1.72171 -2.905391,0.96847 -5.918388,2.58257 -2.959193,1.5603 -5.003727,3.98146 -2.690176,3.0668 -2.690176,6.40262 0,2.04453 1.452695,3.82005 1.560302,1.88312 3.981461,1.88312 2.474961,0 4.734709,-1.88312 2.313552,-1.88312 3.282015,-4.6271 0.0538,-0.37663 0.215214,-0.48423 0.215214,-0.16141 0.376625,0 0.16141,0.16141 0.16141,0.53803 -0.0538,3.49723 -2.743979,5.54176 -2.636373,1.99073 -5.864584,1.99073 -3.658639,0 -5.972191,-2.15214 -2.313551,-2.15214 -2.313551,-5.54176 0,-3.1206 1.667909,-5.59556 1.667909,-2.52877 3.981461,-4.08907 2.313551,-1.5603 5.326548,-2.79779 5.111334,-2.04453 10.706901,-2.85158 5.649369,-0.86086 10.491686,-0.86086 4.89612,0 9.0389914,0.86086 1.9369268,-1.5065 3.3896218,-2.04454 1.452695,-0.53803 1.6141056,-0.53803 0.2152141,0 0.2690176,0.0538 0.32282113,0 0.1076071,0.37663 -0.1614106,0.32282 -1.237481,1.02226 -1.0222669,0.69945 -1.9907303,1.66791 3.44342533,0.91466 6.2412084,2.58257 z m -21.3061936,23.40453 q 3.927657,0 8.500956,-1.34508 4.6271025,-1.3989 8.1781348,-4.03527 6.8868506,-5.21894 6.8868506,-10.7607 0,-6.29501 -9.523223,-8.55476 -3.0129972,4.19667 -7.8015104,12.75143 -4.788513,8.55476 -6.994458,11.94438 0.376625,0 0.75325,0 z"
         style="font-style:normal;font-variant:normal;font-weight:normal;font-stretch:normal;font-family:'Great Vibes';-inkscape-font-specification:'Great Vibes';fill:#3f9718;fill-opacity:1;stroke-width:1.39147019"
         id="path5743"
         inkscape:connector-curvature="0" />
      <path
         d="m 10.550945,146.32006 q -0.7532494,0.64565 -1.6679092,0.64565 -0.9146598,0 -1.452695,-0.64565 -0.5380352,-0.64564 -0.4304282,-1.5603 0.1614106,-0.91466 0.9146598,-1.5603 0.7532493,-0.64564 1.6679092,-0.64564 0.9146594,0 1.4526954,0.64564 0.591838,0.64564 0.430428,1.5603 -0.161411,0.91466 -0.91466,1.5603 z M 5.2782,166.06596 q 1.0222668,0 2.1521408,-1.02227 1.9907302,-1.99073 5.0575312,-8.12433 0.376624,-0.80705 0.753249,-0.48423 0.107607,0.1076 0.107607,0.37662 0,0.21521 -0.430428,1.18368 -0.430428,0.91466 -0.807053,1.66791 -0.322821,0.75325 -1.345088,2.47496 -0.9684634,1.66791 -1.7755162,2.58257 -2.2059443,2.52876 -4.1966745,2.52876 -1.9369268,0 -2.7977831,-1.18367 -0.8608563,-1.18368 -0.8608563,-2.63638 0,-1.45269 0.6994458,-3.1744 L 5.2782,151.4852 q 0.107607,-0.32282 0.107607,-0.86085 0,-0.53804 -0.6456422,-1.3989 l 2.9591936,-0.0538 q 1.2374809,0 1.452695,0.48423 0.2152141,0.43043 -0.3228211,1.39889 l -4.3042816,10.06126 q -0.9146599,1.99073 -0.9146599,3.38962 0,1.56031 1.6679092,1.56031 z"
         style="font-style:normal;font-variant:normal;font-weight:normal;font-stretch:normal;font-family:'Great Vibes';-inkscape-font-specification:'Great Vibes';fill:#3f9718;fill-opacity:1;stroke-width:1.39147019"
         id="path5745"
         inkscape:connector-curvature="0" />
      <path
         d="m 11.196576,162.94535 q 0,-4.46569 4.304281,-14.95738 h -2.797783 q -0.269017,0 -0.376624,-0.26901 -0.0538,-0.32283 0.0538,-0.59184 0.161411,-0.32282 0.430428,-0.32282 h 3.228212 q 1.936926,-4.25048 3.604835,-7.10207 1.66791,-2.85159 3.066801,-3.82005 1.398892,-1.02227 1.99073,-1.02227 0.645643,0 0.91466,0.10761 1.237481,0.59184 1.237481,2.47496 0,1.82932 -1.237481,4.4657 -1.237481,2.63637 -2.421158,4.89612 h 2.582569 q 0.269017,0 0.322821,0.32282 0.107607,0.26901 -0.0538,0.59184 -0.107607,0.26901 -0.376624,0.26901 H 22.54912 q -2.959194,5.00373 -7.155869,8.87758 l -1.237481,5.48796 q -0.16141,0.69945 -0.16141,1.39889 0,0.64565 0.376624,1.34509 0.376625,0.69945 1.183678,0.69945 0.91466,0 2.044534,-0.64564 2.582569,-1.93693 5.703173,-8.12434 0.215214,-0.48423 0.484232,-0.59183 0.322821,-0.10761 0.376624,0.16141 0.0538,0.21521 -0.16141,0.75325 -1.775517,3.71244 -2.797783,5.27274 -2.905391,4.68091 -6.187405,4.68091 -1.667909,0 -2.74398,-1.23748 -1.07607,-1.23748 -1.076071,-3.12061 z M 22.011083,146.8043 q 3.551033,-6.34882 3.551033,-8.82378 0,-1.07607 -0.376625,-1.07607 -0.591839,0 -1.82932,1.72171 -1.183677,1.72171 -4.035264,8.17814 z m -0.699445,1.18367 h -2.528766 q -0.645642,1.5065 -2.90539,7.15587 2.90539,-3.013 5.434156,-7.15587 z"
         style="font-style:normal;font-variant:normal;font-weight:normal;font-stretch:normal;font-family:'Great Vibes';-inkscape-font-specification:'Great Vibes';fill:#3f9718;fill-opacity:1;stroke-width:1.39147019"
         id="path5747"
         inkscape:connector-curvature="0" />
      <path
         d="m 30.673389,146.32006 q -0.753249,0.64565 -1.667909,0.64565 -0.91466,0 -1.452695,-0.64565 -0.538035,-0.64564 -0.430428,-1.5603 0.16141,-0.91466 0.91466,-1.5603 0.753249,-0.64564 1.667909,-0.64564 0.91466,0 1.452695,0.64564 0.591838,0.64564 0.430428,1.5603 -0.161411,0.91466 -0.91466,1.5603 z m -5.272745,19.7459 q 1.022267,0 2.152141,-1.02227 1.99073,-1.99073 5.057531,-8.12433 0.376624,-0.80705 0.753249,-0.48423 0.107607,0.1076 0.107607,0.37662 0,0.21521 -0.430428,1.18368 -0.430428,0.91466 -0.807053,1.66791 -0.322821,0.75325 -1.345088,2.47496 -0.968463,1.66791 -1.775516,2.58257 -2.205944,2.52876 -4.196675,2.52876 -1.936926,0 -2.797783,-1.18367 -0.860856,-1.18368 -0.860856,-2.63638 0,-1.45269 0.699446,-3.1744 l 3.443425,-8.76998 q 0.107607,-0.32282 0.107607,-0.86085 0,-0.53804 -0.645642,-1.3989 l 2.959194,-0.0538 q 1.23748,0 1.452695,0.48423 0.215214,0.43043 -0.322822,1.39889 l -4.304281,10.06126 q -0.91466,1.99073 -0.91466,3.38962 0,1.56031 1.667909,1.56031 z"
         style="font-style:normal;font-variant:normal;font-weight:normal;font-stretch:normal;font-family:'Great Vibes';-inkscape-font-specification:'Great Vibes';fill:#3f9718;fill-opacity:1;stroke-width:1.39147019"
         id="path5749"
         inkscape:connector-curvature="0" />
      <path
         d="m 31.31902,162.94535 q 0,-4.46569 4.304282,-14.95738 h -2.797783 q -0.269018,0 -0.376625,-0.26901 -0.0538,-0.32283 0.0538,-0.59184 0.161411,-0.32282 0.430429,-0.32282 h 3.228211 q 1.936927,-4.25048 3.604836,-7.10207 1.667909,-2.85159 3.0668,-3.82005 1.398892,-1.02227 1.990731,-1.02227 0.645642,0 0.914659,0.10761 1.237481,0.59184 1.237481,2.47496 0,1.82932 -1.237481,4.4657 -1.237481,2.63637 -2.421158,4.89612 h 2.582569 q 0.269018,0 0.322821,0.32282 0.107607,0.26901 -0.0538,0.59184 -0.107608,0.26901 -0.376625,0.26901 h -3.120604 q -2.959194,5.00373 -7.155868,8.87758 l -1.237481,5.48796 q -0.161411,0.69945 -0.161411,1.39889 0,0.64565 0.376625,1.34509 0.376624,0.69945 1.183677,0.69945 0.91466,0 2.044534,-0.64564 2.582569,-1.93693 5.703173,-8.12434 0.215214,-0.48423 0.484232,-0.59183 0.322821,-0.10761 0.376624,0.16141 0.0538,0.21521 -0.16141,0.75325 -1.775516,3.71244 -2.797783,5.27274 -2.90539,4.68091 -6.187405,4.68091 -1.667909,0 -2.74398,-1.23748 -1.07607,-1.23748 -1.07607,-3.12061 z M 42.133528,146.8043 q 3.551032,-6.34882 3.551032,-8.82378 0,-1.07607 -0.376625,-1.07607 -0.591839,0 -1.829319,1.72171 -1.183678,1.72171 -4.035264,8.17814 z m -0.699446,1.18367 h -2.528766 q -0.645642,1.5065 -2.90539,7.15587 2.90539,-3.013 5.434156,-7.15587 z"
         style="font-style:normal;font-variant:normal;font-weight:normal;font-stretch:normal;font-family:'Great Vibes';-inkscape-font-specification:'Great Vibes';fill:#3f9718;fill-opacity:1;stroke-width:1.39147019"
         id="path5751"
         inkscape:connector-curvature="0" />
      <path
         d="m 110.14106,156.91936 q 0,3.0668 -2.20595,5.70317 -3.1206,3.76625 -8.339545,5.43416 -3.873853,1.23748 -7.532493,1.23748 -1.345088,0 -2.636372,-0.16141 -8.447153,-1.07607 -14.311736,-3.71245 -5.326549,3.92766 -11.244936,3.92766 -6.994458,0 -8.662367,-3.87385 -0.376625,-0.91466 -0.376625,-2.15214 0,-1.23748 1.237481,-2.63638 1.936927,-2.15214 5.380352,-2.15214 2.259748,0 4.089068,0.64565 1.82932,0.64564 4.519496,2.09833 2.690176,1.4527 3.98146,2.09834 2.367355,-2.31355 4.896121,-6.40262 2.528765,-4.14287 4.411888,-8.07053 1.936927,-3.98146 4.896121,-8.82377 2.959193,-4.84232 6.025994,-8.23194 l 3.0668,-3.49723 q -4.250478,-0.75325 -9.361812,-0.75325 -5.111334,0 -11.244936,1.34509 -8.393349,1.77551 -12.912845,7.20967 -2.743979,3.28201 -2.743979,6.24121 0,3.92765 3.82005,5.11133 1.345088,0.37663 2.367355,0.37663 1.022267,0 2.367355,-0.37663 1.345088,-0.37662 2.582569,-1.5603 1.291284,-1.23748 1.829319,-2.36736 0.591839,-1.12987 0.591839,-1.6679 0,-0.59184 0.538035,-0.59184 0.538035,0.0538 0.591839,0.75325 v 0.0538 q -0.591839,3.92766 -4.196675,5.97219 -2.205944,1.18368 -4.411888,1.18368 l -2.797783,-0.48423 q -5.703174,-1.99073 -5.703174,-7.42489 0,-3.71244 3.282015,-7.31728 5.272745,-5.91839 15.495414,-7.37108 4.949924,-0.69945 10.276472,-0.69945 5.380352,0 10.922115,1.18368 1.506498,-1.29128 2.636368,-1.72171 1.12988,-0.43043 1.29129,-0.43043 0.21521,0 0.26902,0.0538 0.32282,0 0.1076,0.37663 -0.16141,0.32282 -1.18367,0.96846 -0.96847,0.64564 -1.18368,1.18368 7.31728,1.88312 10.54549,5.38035 1.72171,1.93693 1.72171,3.98146 0,1.99073 -1.18368,4.03527 -1.5603,2.69017 -5.05753,4.08906 -3.49723,1.34509 -7.048258,1.5065 3.443428,1.07607 6.402618,3.013 4.19668,2.74398 4.19668,7.31728 z m -18.831237,10.86831 q 6.025994,0 10.222667,-3.44343 4.5733,-3.65864 4.5733,-7.90911 0,-4.41189 -4.68091,-6.67164 -1.721708,-0.80705 -4.250473,-1.5603 -2.474962,-0.80706 -4.035264,-1.34509 -1.506499,-0.53804 -1.721713,-1.02227 0,-1.02226 1.560302,-1.07607 1.022267,0 3.120604,0.16141 2.098338,0.16141 3.604836,0.16141 1.506498,-0.0538 3.604838,-1.07607 2.15214,-1.07607 3.65864,-2.74398 2.42116,-2.69017 2.42116,-5.05753 0,-5.05753 -9.469424,-7.26347 -2.851586,3.92765 -10.222668,16.62529 -7.371083,12.64382 -11.352543,16.9481 l -2.044534,1.93693 q 6.079798,2.52877 13.074255,3.22821 1.022267,0.10761 1.936927,0.10761 z m -18.454607,-3.38962 q -6.295012,-3.013 -7.962921,-3.60484 -1.667909,-0.59184 -3.335818,-0.59184 -1.614106,0 -2.582569,1.18368 -0.968464,1.12987 -0.968464,2.09834 0,0.91466 0.430428,1.77551 1.183678,2.42116 4.949924,2.42116 5.111335,0 9.46942,-3.28201 z"
         style="font-style:normal;font-variant:normal;font-weight:normal;font-stretch:normal;font-family:'Great Vibes';-inkscape-font-specification:'Great Vibes';fill:#3f9718;fill-opacity:1;stroke-width:1.39147019"
         id="path5753"
         inkscape:connector-curvature="0" />
      <path
         d="m 129.72545,152.66888 q -0.96846,0.96846 -2.74398,4.41189 -1.77552,3.38962 -2.15214,5.11133 -0.32282,1.66791 -0.32282,2.74398 0,1.02227 0.80705,1.02227 1.02227,0 2.52877,-1.88312 2.20594,-2.74398 4.35808,-7.15587 0.21521,-0.48423 0.48423,-0.53804 0.43043,-0.16141 0.43043,0.32282 0,0.26902 -0.16141,0.64565 -4.94992,10.00745 -8.33955,10.00745 -1.5603,0 -2.52876,-1.5065 -0.48423,-0.80705 -0.48423,-2.15214 0,-1.34509 0.53803,-3.28201 -4.30428,6.94065 -7.42488,6.94065 -0.86086,0 -1.56031,-0.53803 -1.6141,-1.12988 -1.6141,-3.87386 0,-5.27274 4.5733,-10.7069 2.58257,-3.013 6.34881,-3.92766 1.02227,-0.26901 1.93693,-0.26901 2.47496,0 4.19667,1.72171 0.53804,0.59184 0.32283,1.12987 -0.21522,0.53804 -0.91466,0.43043 -0.59184,-1.93692 -2.58257,-1.93692 -2.31355,0 -5.70318,3.65863 -1.93692,2.15215 -3.60483,5.05754 -2.09834,3.49722 -2.09834,5.59556 0,2.09834 1.34509,2.09834 3.22821,0 8.44715,-9.89985 1.02227,-1.99073 1.72171,-2.69017 0.69945,-0.75325 1.77552,-0.75325 0.21521,0 1.07607,0.16141 0.91466,0.16141 1.34509,0.0538 z"
         style="font-style:normal;font-variant:normal;font-weight:normal;font-stretch:normal;font-family:'Great Vibes';-inkscape-font-specification:'Great Vibes';fill:#3f9718;fill-opacity:1;stroke-width:1.39147019"
         id="path5755"
         inkscape:connector-curvature="0" />
      <path
         d="m 142.10017,154.87482 q 1.88313,-2.25974 1.88313,-3.82005 0,-1.5603 -1.29129,-1.5603 -2.52876,0 -5.75698,4.6271 -1.02226,1.4527 -1.99073,3.82005 -0.96846,2.36736 -0.96846,4.30429 0,1.88312 0.75325,3.0668 0.80705,1.18367 2.42116,1.18367 1.66791,0 3.0668,-0.75324 1.39889,-0.80706 2.63637,-2.47497 1.29129,-1.72171 1.93693,-2.85158 0.64564,-1.12988 1.77551,-3.38963 0.37663,-0.75324 0.64565,-0.59183 0.26901,0.1076 0.26901,0.37662 0,0.21521 -0.75324,1.77552 -0.69945,1.5065 -1.4527,2.85158 -0.69945,1.34509 -2.04453,3.013 -2.42116,3.013 -6.61784,3.013 -3.01299,0 -4.35808,-1.4527 -1.29129,-1.5065 -1.29129,-3.44342 0,-2.36736 1.12988,-5.16514 1.18368,-2.79778 2.69017,-4.84232 3.12061,-4.25048 7.20968,-4.25048 1.99073,0 2.85158,0.96847 0.91466,0.91466 0.91466,2.15214 0,1.82932 -1.5065,3.1206 -0.75325,0.69945 -1.29128,0.69945 -0.48423,0 -0.86086,-0.37663 z"
         style="font-style:normal;font-variant:normal;font-weight:normal;font-stretch:normal;font-family:'Great Vibes';-inkscape-font-specification:'Great Vibes';fill:#3f9718;fill-opacity:1;stroke-width:1.39147019"
         id="path5757"
         inkscape:connector-curvature="0" />
    </g>
  </g>
</svg>
